Coordinates
version=1
nRows=22
nColumns=24
inDegrees=yes

Units are S.I. units (second, meters, Newtons, ...)
Angles are in degrees.

endheader
time	pelvis_tilt	pelvis_list	pelvis_rotation	pelvis_tx	pelvis_ty	pelvis_tz	hip_flexion_r	hip_adduction_r	hip_rotation_r	knee_angle_r	ankle_angle_r	subtalar_angle_r	mtp_angle_r	hip_flexion_l	hip_adduction_l	hip_rotation_l	knee_angle_l	ankle_angle_l	subtalar_angle_l	mtp_angle_l	lumbar_extension	lumbar_bending	lumbar_rotation
      0.52100000	      5.93856545	     -1.43367900	      9.60912805	     -0.79562506	      0.89922650	      0.27667308	     17.69956944	      1.70892966	    -11.69334512	     -0.69233088	      6.49147588	      1.14604984	      2.31409756	    -28.05349937	     -3.71222170	      4.91622844	     -4.94510434	     13.81999832	      0.18402378	     14.23494144	    -13.97230871	      2.13022284	     -9.67479536
      0.52516667	      5.92948796	     -1.52405698	      9.64758209	     -0.78953139	      0.89815624	      0.27718875	     17.83849475	      1.86987545	    -11.34496011	     -1.29499559	      6.37758398	      1.09782632	      2.30378319	    -28.09197127	     -3.90385384	      4.78464736	     -5.66144774	     13.94420507	      0.42164313	     14.28715075	    -13.94855194	      2.27367309	     -9.70635016
      0.52933333	      5.93770188	     -1.62567430	      9.69655403	     -0.78338471	      0.89715547	      0.27770198	     17.95230858	      2.04790834	    -11.05034128	     -1.94678372	      6.16355225	      0.96973858	      2.31334467	    -28.10531771	     -4.11748436	      4.59492209	     -6.46014800	     13.99642017	      0.75362135	     14.40307245	    -13.95022069	      2.41928541	     -9.72931875
      0.53350000	      5.96683709	     -1.73729818	      9.72800005	     -0.77717644	      0.89620177	      0.27824367	     18.04810564	      2.24793593	    -10.76663858	     -2.66361657	      5.91691803	      0.79695043	      2.34453114	    -28.15217585	     -4.33545911	      4.42692689	     -7.24648900	     14.00206082	      1.00086868	     14.55935557	    -13.95543973	      2.59063504	     -9.73140338
      0.53766667	      5.99580943	     -1.86044294	      9.75563448	     -0.77092750	      0.89526494	      0.27879255	     18.14663511	      2.46362362	    -10.50809430	     -3.42827078	      5.59944902	      0.54987348	      2.39810888	    -28.17627152	     -4.56425826	      4.23425842	     -8.08763029	     13.99114398	      1.26811541	     14.77212142	    -13.94681474	      2.77381240	     -9.71976255
      0.54183333	      6.03570598	     -1.98481986	      9.76663315	     -0.76461753	      0.89438415	      0.27937305	     18.23641742	      2.69072950	    -10.27039334	     -4.23914455	      5.22394132	      0.25114883	      2.46878984	    -28.19816404	     -4.78792085	      4.02590014	     -8.95760683	     13.92740705	      1.50868919	     15.02820282	    -13.94271400	      2.96358691	     -9.68733086
      0.54600000	      6.11957008	     -2.12397644	      9.79209070	     -0.75825045	      0.89359146	      0.27993349	     18.27307300	      2.93721549	    -10.11706618	     -5.07138482	      4.80847748	     -0.03931977	      3.77368410	    -28.23987487	     -5.04728170	      3.75530333	     -9.87315135	     13.75700700	      1.76549793	     19.35593190	    -13.99401829	      3.17160945	     -9.65964253
      0.55016667	      6.16530100	     -2.25662664	      9.78556629	     -0.75186356	      0.89278274	      0.28054846	     18.35962724	      3.18358922	     -9.90174330	     -5.94507410	      4.33421996	     -0.46610305	      3.77581626	    -28.24145015	     -5.27032943	      3.56306918	    -10.80768291	     13.59868412	      1.93034309	     19.45796396	    -13.99343760	      3.36720977	     -9.57602929
      0.55433333	      6.17971862	     -2.39264654	      9.77675988	     -0.74541930	      0.89199141	      0.28115171	     18.48168789	      3.42495274	     -9.74260095	     -6.84559925	      3.81665156	     -0.85752939	      3.79126284	    -28.18288850	     -5.48664632	      3.39071354	    -11.78932678	     13.35655121	      2.03057381	     19.56718473	    -13.93668748	      3.56451842	     -9.50163833
      0.55850000	      6.21018041	     -2.53805825	      9.75306938	     -0.73893098	      0.89125264	      0.28178882	     18.58947123	      3.68554925	     -9.59122461	     -7.76536792	      3.27938248	     -1.30012742	      3.82127298	    -28.12444505	     -5.71270850	      3.16794098	    -12.80990097	     13.08501430	      2.18842429	     19.72801870	    -13.89640573	      3.76944094	     -9.40469038
      0.56266667	      6.32747000	     -2.72375440	      9.73366188	     -0.73238251	      0.89066076	      0.28245535	     18.57082088	      4.01473840	     -9.44043111	     -8.61745318	      2.70171098	     -1.83280692	      4.00508591	    -28.11649325	     -6.01351603	      2.79027883	    -13.91224444	     12.81186636	      2.54564183	     20.49845549	    -13.95680783	      4.03439497	     -9.26584964
      0.56683333	      6.36296892	     -2.88254902	      9.68372496	     -0.72582113	      0.89002080	      0.28315898	     18.66578901	      4.30375273	     -9.26657971	     -9.54325685	      2.12569282	     -2.40139839	      4.36974358	    -28.01025219	     -6.25272820	      2.48970003	    -15.03350982	     12.42366215	      2.73774262	     22.09796879	    -13.91571916	      4.24808306	     -9.05958492
      0.57100000	      6.33355781	     -2.99797448	      9.64957351	     -0.71927741	      0.88939203	      0.28378489	     18.87150076	      4.50305715	     -9.25364563	    -10.58971507	      1.64991308	     -2.68876963	      4.39128575	    -27.82485921	     -6.41413695	      2.44973143	    -16.16324140	     11.94152734	      2.57148750	     22.24831717	    -13.80340212	      4.41302225	     -9.02214972
      0.57516667	      6.39997212	     -3.18117712	      9.60014383	     -0.71265797	      0.88889915	      0.28451633	     18.92267584	      4.82363280	     -9.12369575	    -11.51213845	      1.13215882	     -3.23849949	      4.62406270	    -27.67631857	     -6.69707086	      2.07699951	    -17.42140334	     11.49571631	      2.85905781	     23.53389337	    -13.78667043	      4.66251915	     -8.76948635
      0.57933333	      6.34706387	     -3.27187592	      9.52664304	     -0.70610265	      0.88835204	      0.28522572	     19.16040765	      5.00317978	     -9.05440500	    -12.60323789	      0.75671952	     -3.55571440	      4.65781398	    -27.39611174	     -6.81749223	      1.99186864	    -18.67822786	     10.91387529	      2.67934736	     23.79209277	    -13.64927946	      4.77194009	     -8.69885336
      0.58350000	      6.33560282	     -3.40275606	      9.45324223	     -0.69949791	      0.88791025	      0.28596341	     19.33256993	      5.23843286	     -8.98362215	    -13.65026229	      0.40911319	     -3.89916887	      4.69585177	    -27.11993854	     -7.00442007	      1.79078899	    -19.99720170	     10.29070615	      2.69120218	     24.12068342	    -13.55331648	      4.94198953	     -8.51648553
      0.58766667	      6.34415748	     -3.55441033	      9.38709970	     -0.69283506	      0.88757889	      0.28669069	     19.46981361	      5.49398051	     -8.94994664	    -14.68420138	      0.13685682	     -4.15272453	      4.71547076	    -26.84456578	     -7.21990652	      1.60265818	    -21.32553811	      9.52812376	      2.69184563	     24.33503647	    -13.46334689	      5.16757238	     -8.37713117
      0.59183333	      6.33136518	     -3.68952235	      9.31589573	     -0.68622107	      0.88726512	      0.28745367	     19.63542284	      5.72988092	     -8.89482517	    -15.74099017	     -0.04260713	     -4.41758985	      4.73491676	    -26.48061319	     -7.42443406	      1.38633765	    -22.77209075	      8.80563690	      2.71880629	     24.58398071	    -13.36967088	      5.34360782	     -8.19858215
      0.59600000	      6.30191063	     -3.80434326	      9.23609113	     -0.67965849	      0.88697197	      0.28824964	     19.82442722	      5.94093330	     -8.83966463	    -16.82179990	     -0.13357440	     -4.63912426	      4.76117449	    -26.03167523	     -7.61481872	      1.13475861	    -24.33614136	      8.11999413	      2.78909466	     25.02432385	    -13.26444594	      5.45614483	     -7.96484488
      0.60016667	      6.33764925	     -3.94156629	      9.15911674	     -0.67303329	      0.88684775	      0.28904183	     19.92441282	      6.18479518	     -8.80976976	    -17.88442667	     -0.08805095	     -4.76287200	      4.91129958	    -25.65801125	     -7.84572295	      0.87970736	    -25.83893325	      7.14227603	      2.74995673	     30.80021209	    -13.22737984	      5.65039290	     -7.73788414
      0.60433333	      6.32087171	     -4.09300760	      9.11241408	     -0.66644081	      0.88672209	      0.28980737	     20.05472157	      6.42761179	     -8.79875470	    -18.88490262	     -0.05368795	     -4.88641610	      4.90590622	    -25.14793036	     -8.10087765	      0.66818260	    -27.47245710	      6.27417811	      2.75975864	     30.82111872	    -13.11205078	      5.84291056	     -7.62254533
      0.60850000	      6.34151210	     -4.24592789	      9.06281039	     -0.65984857	      0.88671702	      0.29058468	     20.12824587	      6.68168300	     -8.77824675	    -19.86974642	      0.11006345	     -4.95693701	      4.89945930	    -24.65622815	     -8.36552844	      0.46782061	    -29.10940694	      5.28251986	      2.75987302	     30.84305766	    -13.05466470	      6.06229133	     -7.47938726
